<?xml version="1.0" encoding="utf-8"?>
<!-- Generator: Adobe Illustrator 20.1.0, SVG Export Plug-In . SVG Version: 6.00 Build 0)  -->
<svg version="1.1" id="圖層_1" xmlns="http://www.w3.org/2000/svg" xmlns:xlink="http://www.w3.org/1999/xlink" x="0px" y="0px"
	 viewBox="0 0 60 60" style="enable-background:new 0 0 60 60;" xml:space="preserve">
<style type="text/css">
	.st0{fill:#222222;}
</style>
<path class="st0" d="M26.2,8.3l2.5-2.5c1.1-1.1,2.8-1.1,3.9,0l22.3,22.3c1.1,1.1,1.1,2.8,0,3.9L32.6,54.2c-1.1,1.1-2.8,1.1-3.9,0
	l-2.5-2.5c-1.1-1.1-1.1-2.9,0-3.9L40,34.6H7.1c-1.5,0-2.7-1.2-2.7-2.7v-3.7c0-1.5,1.2-2.7,2.7-2.7H40L26.2,12.3
	C25.1,11.2,25.1,9.4,26.2,8.3z"/>
</svg>
