<?xml version="1.0" encoding="utf-8"?>
<!-- Generator: Adobe Illustrator 20.1.0, SVG Export Plug-In . SVG Version: 6.00 Build 0)  -->
<svg version="1.1" id="layer" xmlns="http://www.w3.org/2000/svg" xmlns:xlink="http://www.w3.org/1999/xlink" x="0px" y="0px"
	 viewBox="0 0 60 60" style="enable-background:new 0 0 60 60;" xml:space="preserve">
<style type="text/css">
	.st0{fill:#222222;}
</style>
<path class="st0" d="M33.8,51.7l-2.5,2.5c-1.1,1.1-2.8,1.1-3.9,0L5.1,31.9c-1.1-1.1-1.1-2.8,0-3.9L27.4,5.8c1.1-1.1,2.8-1.1,3.9,0
	l2.5,2.5c1.1,1.1,1.1,2.9,0,3.9L20,25.4h32.9c1.5,0,2.7,1.2,2.7,2.7v3.7c0,1.5-1.2,2.7-2.7,2.7H20l13.8,13.2
	C34.9,48.8,34.9,50.6,33.8,51.7z"/>
</svg>
