<?xml version="1.0" encoding="utf-8"?>
<!-- Generator: Adobe Illustrator 20.1.0, SVG Export Plug-In . SVG Version: 6.00 Build 0)  -->
<svg version="1.1" id="圖層_1" xmlns="http://www.w3.org/2000/svg" xmlns:xlink="http://www.w3.org/1999/xlink" x="0px" y="0px"
	 viewBox="0 0 66 66" style="enable-background:new 0 0 66 66;" xml:space="preserve">
<style type="text/css">
	.st0{fill:#69C5CD;}
</style>
<g transform="rotate(0 50 50)">
	<rect x="31" y="17.5" class="st0" width="4" height="2">
	
		<animate  accumulate="none" additive="replace" attributeName="opacity" begin="-0.7771428571428572s" calcMode="linear" dur="0.8s" fill="remove" keyTimes="0;1" repeatCount="indefinite" restart="always" values="1;0">
		</animate>
	</rect>
</g>
<g transform="rotate(10.285714285714286 50 50)">
	<rect x="29.2" y="19.8" transform="matrix(2.568129e-06 1 -1 2.568129e-06 52.0263 -8.4491)" class="st0" width="2" height="4">
	
		<animate  accumulate="none" additive="replace" attributeName="opacity" begin="-0.7542857142857143s" calcMode="linear" dur="0.8s" fill="remove" keyTimes="0;1" repeatCount="indefinite" restart="always" values="1;0">
		</animate>
	</rect>
</g>
<g transform="rotate(20.571428571428573 50 50)">
	<rect x="27.1" y="23.6" transform="matrix(2.679618e-06 1 -1 2.679618e-06 53.6479 -2.5733)" class="st0" width="2" height="4">
	
		<animate  accumulate="none" additive="replace" attributeName="opacity" begin="-0.7314285714285714s" calcMode="linear" dur="0.8s" fill="remove" keyTimes="0;1" repeatCount="indefinite" restart="always" values="1;0">
		</animate>
	</rect>
</g>
<g transform="rotate(30.857142857142858 50 50)">
	<rect x="25.7" y="27.6" transform="matrix(2.194341e-06 1 -1 2.194341e-06 56.2927 2.9185)" class="st0" width="2" height="4">
	
		<animate  accumulate="none" additive="replace" attributeName="opacity" begin="-0.7085714285714286s" calcMode="linear" dur="0.8s" fill="remove" keyTimes="0;1" repeatCount="indefinite" restart="always" values="1;0">
		</animate>
	</rect>
</g>
<g transform="rotate(41.142857142857146 50 50)">
	<rect x="25" y="31.9" transform="matrix(3.067332e-06 1 -1 3.067332e-06 59.8755 7.8498)" class="st0" width="2" height="4">
	
		<animate  accumulate="none" additive="replace" attributeName="opacity" begin="-0.6857142857142857s" calcMode="linear" dur="0.8s" fill="remove" keyTimes="0;1" repeatCount="indefinite" restart="always" values="1;0">
		</animate>
	</rect>
</g>
<g transform="rotate(51.42857142857143 50 50)">
	<rect x="25.1" y="36.2" transform="matrix(2.100161e-06 1 -1 2.100161e-06 64.2813 12.0622)" class="st0" width="2" height="4">
	
		<animate  accumulate="none" additive="replace" attributeName="opacity" begin="-0.6628571428571429s" calcMode="linear" dur="0.8s" fill="remove" keyTimes="0;1" repeatCount="indefinite" restart="always" values="1;0">
		</animate>
	</rect>
</g>
<g transform="rotate(61.714285714285715 50 50)">
	<rect x="26" y="40.4" transform="matrix(2.422858e-06 1 -1 2.422858e-06 69.3684 15.4201)" class="st0" width="2" height="4">
	
		<animate  accumulate="none" additive="replace" attributeName="opacity" begin="-0.64s" calcMode="linear" dur="0.8s" fill="remove" keyTimes="0;1" repeatCount="indefinite" restart="always" values="1;0">
		</animate>
	</rect>
</g>
<g transform="rotate(72 50 50)">
	<rect x="27.6" y="44.4" transform="matrix(2.679782e-06 1 -1 2.679782e-06 74.9733 17.8158)" class="st0" width="2" height="4">
	
		<animate  accumulate="none" additive="replace" attributeName="opacity" begin="-0.6171428571428572s" calcMode="linear" dur="0.8s" fill="remove" keyTimes="0;1" repeatCount="indefinite" restart="always" values="1;0">
		</animate>
	</rect>
</g>
<g transform="rotate(82.28571428571429 50 50)">
	<rect x="29.9" y="48.1" transform="matrix(2.847220e-06 1 -1 2.847220e-06 80.916 19.1721)" class="st0" width="2" height="4">
	
		<animate  accumulate="none" additive="replace" attributeName="opacity" begin="-0.5942857142857143s" calcMode="linear" dur="0.8s" fill="remove" keyTimes="0;1" repeatCount="indefinite" restart="always" values="1;0">
		</animate>
	</rect>
</g>
<g transform="rotate(92.57142857142857 50 50)">
	<rect x="31.8" y="52.2" class="st0" width="4" height="2">
	
		<animate  accumulate="none" additive="replace" attributeName="opacity" begin="-0.5714285714285714s" calcMode="linear" dur="0.8s" fill="remove" keyTimes="0;1" repeatCount="indefinite" restart="always" values="1;0">
		</animate>
	</rect>
</g>
<g transform="rotate(102.85714285714286 50 50)">
	<rect x="35.2" y="54.8" class="st0" width="4" height="2">
	
		<animate  accumulate="none" additive="replace" attributeName="opacity" begin="-0.5485714285714286s" calcMode="linear" dur="0.8s" fill="remove" keyTimes="0;1" repeatCount="indefinite" restart="always" values="1;0">
		</animate>
	</rect>
</g>
<g transform="rotate(113.14285714285714 50 50)">
	<rect x="39.1" y="56.8" class="st0" width="4" height="2">
	
		<animate  accumulate="none" additive="replace" attributeName="opacity" begin="-0.5257142857142858s" calcMode="linear" dur="0.8s" fill="remove" keyTimes="0;1" repeatCount="indefinite" restart="always" values="1;0">
		</animate>
	</rect>
</g>
<g transform="rotate(123.42857142857143 50 50)">
	<rect x="43.2" y="58" class="st0" width="4" height="2">
	
		<animate  accumulate="none" additive="replace" attributeName="opacity" begin="-0.5028571428571429s" calcMode="linear" dur="0.8s" fill="remove" keyTimes="0;1" repeatCount="indefinite" restart="always" values="1;0">
		</animate>
	</rect>
</g>
<g transform="rotate(133.71428571428572 50 50)">
	<rect x="47.5" y="58.5" class="st0" width="4" height="2">
	
		<animate  accumulate="none" additive="replace" attributeName="opacity" begin="-0.48000000000000004s" calcMode="linear" dur="0.8s" fill="remove" keyTimes="0;1" repeatCount="indefinite" restart="always" values="1;0">
		</animate>
	</rect>
</g>
<g transform="rotate(144 50 50)">
	<rect x="51.8" y="58.2" class="st0" width="4" height="2">
	
		<animate  accumulate="none" additive="replace" attributeName="opacity" begin="-0.45714285714285713s" calcMode="linear" dur="0.8s" fill="remove" keyTimes="0;1" repeatCount="indefinite" restart="always" values="1;0">
		</animate>
	</rect>
</g>
<g transform="rotate(154.28571428571428 50 50)">
	<rect x="56" y="57.2" class="st0" width="4" height="2">
	
		<animate  accumulate="none" additive="replace" attributeName="opacity" begin="-0.43428571428571433s" calcMode="linear" dur="0.8s" fill="remove" keyTimes="0;1" repeatCount="indefinite" restart="always" values="1;0">
		</animate>
	</rect>
</g>
<g transform="rotate(164.57142857142858 50 50)">
	<rect x="59.9" y="55.4" class="st0" width="4" height="2">
	
		<animate  accumulate="none" additive="replace" attributeName="opacity" begin="-0.4114285714285714s" calcMode="linear" dur="0.8s" fill="remove" keyTimes="0;1" repeatCount="indefinite" restart="always" values="1;0">
		</animate>
	</rect>
</g>
<g transform="rotate(174.85714285714286 50 50)">
	<rect x="63.4" y="52.9" class="st0" width="4" height="2">
	
		<animate  accumulate="none" additive="replace" attributeName="opacity" begin="-0.3885714285714286s" calcMode="linear" dur="0.8s" fill="remove" keyTimes="0;1" repeatCount="indefinite" restart="always" values="1;0">
		</animate>
	</rect>
</g>
<g transform="rotate(185.14285714285714 50 50)">
	<rect x="67.5" y="48.9" transform="matrix(-2.331648e-06 -1 1 -2.331648e-06 17.5679 119.3433)" class="st0" width="2" height="4">
	
		<animate  accumulate="none" additive="replace" attributeName="opacity" begin="-0.3657142857142857s" calcMode="linear" dur="0.8s" fill="remove" keyTimes="0;1" repeatCount="indefinite" restart="always" values="1;0">
		</animate>
	</rect>
</g>
<g transform="rotate(195.42857142857142 50 50)">
	<rect x="69.9" y="45.4" transform="matrix(-2.623213e-06 -1 1 -2.623213e-06 23.5654 118.2548)" class="st0" width="2" height="4">
	
		<animate  accumulate="none" additive="replace" attributeName="opacity" begin="-0.34285714285714286s" calcMode="linear" dur="0.8s" fill="remove" keyTimes="0;1" repeatCount="indefinite" restart="always" values="1;0">
		</animate>
	</rect>
</g>
<g transform="rotate(205.71428571428572 50 50)">
	<rect x="71.7" y="41.4" transform="matrix(-2.822693e-06 -1 1 -2.822693e-06 29.2723 116.113)" class="st0" width="2" height="4">
	
		<animate  accumulate="none" additive="replace" attributeName="opacity" begin="-0.32s" calcMode="linear" dur="0.8s" fill="remove" keyTimes="0;1" repeatCount="indefinite" restart="always" values="1;0">
		</animate>
	</rect>
</g>
<g transform="rotate(216 50 50)">
	<rect x="72.8" y="37.3" transform="matrix(-2.339309e-06 -1 1 -2.339309e-06 34.5049 112.9867)" class="st0" width="2" height="4">
	
		<animate  accumulate="none" additive="replace" attributeName="opacity" begin="-0.29714285714285715s" calcMode="linear" dur="0.8s" fill="remove" keyTimes="0;1" repeatCount="indefinite" restart="always" values="1;0">
		</animate>
	</rect>
</g>
<g transform="rotate(226.28571428571428 50 50)">
	<rect x="73" y="33" transform="matrix(-2.258651e-06 -1 1 -2.258651e-06 39.0951 108.9762)" class="st0" width="2" height="4">
	
		<animate  accumulate="none" additive="replace" attributeName="opacity" begin="-0.2742857142857143s" calcMode="linear" dur="0.8s" fill="remove" keyTimes="0;1" repeatCount="indefinite" restart="always" values="1;0">
		</animate>
	</rect>
</g>
<g transform="rotate(236.57142857142858 50 50)">
	<rect x="72.6" y="28.7" transform="matrix(-2.421740e-06 -1 1 -2.421740e-06 42.8957 104.2106)" class="st0" width="2" height="4">
	
		<animate  accumulate="none" additive="replace" attributeName="opacity" begin="-0.25142857142857145s" calcMode="linear" dur="0.8s" fill="remove" keyTimes="0;1" repeatCount="indefinite" restart="always" values="1;0">
		</animate>
	</rect>
</g>
<g transform="rotate(246.85714285714286 50 50)">
	<rect x="71.3" y="24.5" transform="matrix(-2.557654e-06 -1 1 -2.557654e-06 45.7841 98.8429)" class="st0" width="2" height="4">
	
		<animate  accumulate="none" additive="replace" attributeName="opacity" begin="-0.22857142857142856s" calcMode="linear" dur="0.8s" fill="remove" keyTimes="0;1" repeatCount="indefinite" restart="always" values="1;0">
		</animate>
	</rect>
</g>
<g transform="rotate(257.14285714285717 50 50)">
	<rect x="69.4" y="20.7" transform="matrix(-2.563823e-06 -1 1 -2.563823e-06 47.6677 93.0458)" class="st0" width="2" height="4">
	
		<animate  accumulate="none" additive="replace" attributeName="opacity" begin="-0.2057142857142857s" calcMode="linear" dur="0.8s" fill="remove" keyTimes="0;1" repeatCount="indefinite" restart="always" values="1;0">
		</animate>
	</rect>
</g>
<g transform="rotate(267.42857142857144 50 50)">
	<rect x="66.8" y="17.3" transform="matrix(-2.590241e-06 -1 1 -2.590241e-06 48.4859 87.0055)" class="st0" width="2" height="4">
	
		<animate  accumulate="none" additive="replace" attributeName="opacity" begin="-0.18285714285714286s" calcMode="linear" dur="0.8s" fill="remove" keyTimes="0;1" repeatCount="indefinite" restart="always" values="1;0">
		</animate>
	</rect>
</g>
<g transform="rotate(277.7142857142857 50 50)">
	<rect x="62.6" y="15.4" transform="matrix(-1 2.090246e-06 -2.090246e-06 -1 129.1283 32.7037)" class="st0" width="4" height="2">
	
		<animate  accumulate="none" additive="replace" attributeName="opacity" begin="-0.16s" calcMode="linear" dur="0.8s" fill="remove" keyTimes="0;1" repeatCount="indefinite" restart="always" values="1;0">
		</animate>
	</rect>
</g>
<g transform="rotate(288 50 50)">
	<rect x="58.9" y="13.1" transform="matrix(-1 2.390582e-06 -2.390582e-06 -1 121.8293 28.1174)" class="st0" width="4" height="2">
	
		<animate  accumulate="none" additive="replace" attributeName="opacity" begin="-0.13714285714285715s" calcMode="linear" dur="0.8s" fill="remove" keyTimes="0;1" repeatCount="indefinite" restart="always" values="1;0">
		</animate>
	</rect>
</g>
<g transform="rotate(298.2857142857143 50 50)">
	<rect x="54.9" y="11.5" transform="matrix(-1 2.780725e-06 -2.780725e-06 -1 113.8287 24.908)" class="st0" width="4" height="2">
	
		<animate  accumulate="none" additive="replace" attributeName="opacity" begin="-0.11428571428571428s" calcMode="linear" dur="0.8s" fill="remove" keyTimes="0;1" repeatCount="indefinite" restart="always" values="1;0">
		</animate>
	</rect>
</g>
<g transform="rotate(308.57142857142856 50 50)">
	<rect x="50.7" y="10.6" transform="matrix(-1 2.756074e-06 -2.756074e-06 -1 105.3837 23.1789)" class="st0" width="4" height="2">
	
		<animate  accumulate="none" additive="replace" attributeName="opacity" begin="-0.09142857142857143s" calcMode="linear" dur="0.8s" fill="remove" keyTimes="0;1" repeatCount="indefinite" restart="always" values="1;0">
		</animate>
	</rect>
</g>
<g transform="rotate(318.85714285714283 50 50)">
	<rect x="46.4" y="10.5" transform="matrix(-1 1.958145e-06 -1.958145e-06 -1 96.7655 22.9856)" class="st0" width="4" height="2">
	
		<animate  accumulate="none" additive="replace" attributeName="opacity" begin="-0.06857142857142857s" calcMode="linear" dur="0.8s" fill="remove" keyTimes="0;1" repeatCount="indefinite" restart="always" values="1;0">
		</animate>
	</rect>
</g>
<g transform="rotate(329.14285714285717 50 50)">
	<rect x="42.1" y="11.2" transform="matrix(-1 2.957761e-06 -2.957761e-06 -1 88.2514 24.334)" class="st0" width="4" height="2">
	
		<animate  accumulate="none" additive="replace" attributeName="opacity" begin="-0.045714285714285714s" calcMode="linear" dur="0.8s" fill="remove" keyTimes="0;1" repeatCount="indefinite" restart="always" values="1;0">
		</animate>
	</rect>
</g>
<g transform="rotate(339.42857142857144 50 50)">
	<rect x="38.1" y="12.6" transform="matrix(-1 2.655848e-06 -2.655848e-06 -1 80.1148 27.1811)" class="st0" width="4" height="2">
	
		<animate  accumulate="none" additive="replace" attributeName="opacity" begin="-0.022857142857142857s" calcMode="linear" dur="0.8s" fill="remove" keyTimes="0;1" repeatCount="indefinite" restart="always" values="1;0">
		</animate>
	</rect>
</g>
<g transform="rotate(349.7142857142857 50 50)">
	<rect x="34.3" y="14.7" transform="matrix(-1 2.344974e-06 -2.344974e-06 -1 72.6173 31.4354)" class="st0" width="4" height="2">
	
		<animate  accumulate="none" additive="replace" attributeName="opacity" begin="0s" calcMode="linear" dur="0.8s" fill="remove" keyTimes="0;1" repeatCount="indefinite" restart="always" values="1;0">
		</animate>
	</rect>
</g>
</svg>
