<?xml version="1.0" encoding="utf-8"?>
<!-- Generator: Adobe Illustrator 19.0.0, SVG Export Plug-In . SVG Version: 6.00 Build 0)  -->
<svg version="1.1" id="layer" xmlns="http://www.w3.org/2000/svg" xmlns:xlink="http://www.w3.org/1999/xlink" x="0px" y="0px"
	 viewBox="-267 390.9 60 60" style="enable-background:new -267 390.9 60 60;" xml:space="preserve">
<style type="text/css">
	.st0{fill:#FFFFFF;}
</style>
<path class="st0" d="M-233.2,442.6l-2.5,2.5c-1.1,1.1-2.8,1.1-3.9,0l-22.3-22.3c-1.1-1.1-1.1-2.8,0-3.9l22.3-22.2
	c1.1-1.1,2.8-1.1,3.9,0l2.5,2.5c1.1,1.1,1.1,2.9,0,3.9l-13.8,13.2h32.9c1.5,0,2.7,1.2,2.7,2.7v3.7c0,1.5-1.2,2.7-2.7,2.7H-247
	l13.8,13.2C-232.1,439.7-232.1,441.5-233.2,442.6z"/>
</svg>
